<svg xmlns="http://www.w3.org/2000/svg" viewBox="0 0 24 24" fill="currentColor">
    <path d="M12 0C5.37 0 0 5.37 0 12c0 5.3 3.438 9.8 8.205 11.385.6.113.82-.26.82-.58 0-.287-.01-1.05-.015-2.06-3.338.726-4.042-1.61-4.042-1.61-.546-1.39-1.335-1.76-1.335-1.76-1.09-.746.082-.73.082-.73 1.205.085 1.838 1.237 1.838 1.237 1.07 1.834 2.807 1.304 3.492.997.108-.775.418-1.305.762-1.605-2.665-.3-5.466-1.332-5.466-5.93 0-1.31.468-2.38 1.235-3.22-.123-.3-.535-1.52.117-3.16 0 0 1.008-.322 3.3 1.23.96-.267 1.98-.4 3-.405 1.02.005 2.04.138 3 .405 2.29-1.552 3.297-1.23 3.297-1.23.653 1.64.24 2.86.118 3.16.768.84 1.233 1.91 1.233 3.22 0 4.61-2.804 5.62-5.476 5.92.43.37.823 1.1.823 2.22 0 1.602-.015 2.895-.015 3.29 0 .32.216.695.825.575C20.565 21.795 24 17.3 24 12c0-6.63-5.37-12-12-12z"/>
</svg>