<svg xmlns="http://www.w3.org/2000/svg" width="34" height="34" viewBox="0 0 34 34" fill="currentColor">
    <path d="M16.832 0C7.95936 0 0.690707 6.8414 0 15.5358L9.05289 19.2787C9.81996 18.7541 10.7466 18.4467 11.7436 18.4467C11.8329 18.4467 11.9219 18.4498 12.0101 18.4548L16.0359 12.6194C16.0359 12.5916 16.0356 12.5645 16.0356 12.537C16.0356 9.02463 18.8927 6.16711 22.4054 6.16711C25.9178 6.16711 28.7749 9.02463 28.7749 12.537C28.7749 16.0493 25.9178 18.9072 22.4054 18.9072C22.3569 18.9072 22.3088 18.9061 22.2607 18.9049L16.5189 23.0018C16.522 23.0763 16.5247 23.1523 16.5247 23.2278C16.5247 25.8647 14.38 28.009 11.7436 28.009C9.42936 28.009 7.49431 26.3572 7.05598 24.1698L0.581889 21.4933C2.58643 28.5828 9.09985 33.7805 16.832 33.7805C26.1606 33.7805 33.7225 26.2182 33.7225 16.8908C33.7225 7.56189 26.1602 0 16.832 0Z"></path>
    <path d="M10.5846 25.6287L8.50977 24.7715C8.87746 25.537 9.51356 26.1781 10.3581 26.5301C12.184 27.2907 14.2889 26.4244 15.0499 24.597C15.4184 23.7135 15.4207 22.7379 15.0553 21.8521C14.6906 20.9659 14.0026 20.2748 13.1179 19.906C12.2401 19.5406 11.2997 19.5539 10.4735 19.8659L12.6166 20.7521C13.9633 21.3134 14.6001 22.8597 14.0389 24.2064C13.4787 25.5534 11.9312 26.1903 10.5846 25.6287Z"></path>
    <path d="M26.6497 12.5368C26.6497 10.1966 24.746 8.29248 22.4054 8.29248C20.0653 8.29248 18.1611 10.1966 18.1611 12.5368C18.1611 14.8773 20.0653 16.7807 22.4054 16.7807C24.746 16.7803 26.6497 14.8769 26.6497 12.5368ZM19.2241 12.5295C19.2241 10.7686 20.6517 9.34133 22.4127 9.34133C24.1736 9.34133 25.6012 10.7686 25.6012 12.5295C25.6012 14.2904 24.1736 15.7177 22.4127 15.7177C20.6517 15.7177 19.2241 14.2901 19.2241 12.5295Z"></path>
</svg>